2.5Hzhigh3min_grf.mot
version=1
nRows=12
nColumns 19
inDegrees=yes
endheader
time	1_ground_force_vx	1_ground_force_vy	1_ground_force_vz	1_ground_force_px	1_ground_force_py	1_ground_force_pz	1_ground_torque_x	1_ground_torque_y	1_ground_torque_z	2_ground_force_vx	2_ground_force_vy	2_ground_force_vz	2_ground_force_px	2_ground_force_py	2_ground_force_pz	2_ground_torque_x	2_ground_torque_y	2_ground_torque_z
            3.751500	            5.303578	           27.957935	           -3.561862	           -0.135787	            0.006405	           -0.443738	           -0.021708	           -0.114433	            0.014579	           -0.234914	            0.183303	            0.000757	           -0.232311	            0.006130	           -0.833667	           -0.112659	           -0.028362	           -0.113154
            3.752000	            6.082830	           26.516550	           -3.707548	           -0.140249	            0.006428	           -0.449084	            0.020000	            0.087187	           -0.012190	           -0.608446	           -0.185845	           -0.141182	           -0.232311	            0.006130	           -0.833667	           -0.018716	           -0.028157	           -0.075494
            3.752500	            6.449564	           23.453088	           -3.950878	           -0.147325	            0.006350	           -0.431296	            0.082635	            0.300491	           -0.050620	           -0.425616	            1.103200	            0.051050	           -0.232311	            0.006130	           -0.833667	           -0.112599	           -0.047200	           -0.132072
            3.753000	            5.851888	           20.392388	           -4.879657	           -0.133761	            0.006400	           -0.442323	            0.061825	            0.215444	           -0.051553	           -0.515308	           -0.002195	            0.094075	           -0.232311	            0.006130	           -0.833667	           -0.075045	           -0.046930	           -0.169789
            3.753500	            5.299115	           23.100002	           -5.737960	           -0.118032	            0.006446	           -0.452542	           -0.021908	           -0.095503	            0.023723	           -0.516013	            0.182288	            0.000876	           -0.232311	            0.006130	           -0.833667	           -0.150061	           -0.066577	           -0.037873
            3.754000	            4.380295	           27.608433	           -6.174919	           -0.125160	            0.006439	           -0.451173	           -0.065190	           -0.410885	            0.091899	           -0.373490	           -0.369483	           -0.048083	           -0.232311	            0.006130	           -0.833667	           -0.018741	           -0.027955	           -0.132045
            3.754500	            3.968838	           31.390787	           -5.423969	           -0.153273	            0.006392	           -0.441399	           -0.082859	           -0.655359	            0.113239	           -0.467855	           -0.185673	           -0.047386	           -0.232311	            0.006130	           -0.833667	           -0.168913	           -0.056923	           -0.113232
            3.755000	            4.658069	           35.172567	           -4.492325	           -0.155914	            0.006418	           -0.447509	           -0.065684	           -0.495975	            0.063347	           -0.046891	            0.000166	           -0.093836	           -0.232311	            0.006130	           -0.833667	           -0.169100	           -0.009525	           -0.150763
            3.755500	            6.904182	           41.841061	           -4.056597	           -0.146158	            0.006403	           -0.443568	            0.020059	            0.121564	           -0.011786	           -0.329155	            0.366108	            0.283022	           -0.232311	            0.006130	           -0.833667	           -0.168922	           -0.047672	           -0.056647
            3.756000	            8.601298	           42.380417	           -3.645785	           -0.135690	            0.006454	           -0.454983	            0.168718	            0.831309	           -0.071514	           -0.186009	           -0.369475	            0.139550	           -0.232311	            0.006130	           -0.833667	           -0.149933	           -0.095137	            0.018577
            3.756500	            8.231814	           46.169464	           -4.454049	           -0.138215	            0.006413	           -0.445631	            0.142079	            0.796873	           -0.076876	           -0.657166	            0.365426	            0.142377	           -0.232311	            0.006130	           -0.833667	           -0.168768	           -0.094801	           -0.094516
            3.757000	            6.621991	           54.107528	           -5.975157	           -0.141424	            0.006399	           -0.442399	            0.037226	            0.304171	           -0.033590	           -0.375484	            0.182962	           -0.046112	           -0.232311	            0.006130	           -0.833667	           -0.131267	           -0.066576	           -0.019030
